# xmcd CD database file
#
# Track frame offsets:
#	150
#	11462
#	21501
#	33751
#	43520
#	57136
#	74986
#	90830
#	102615
#	112188
#	122381
#	139061
#	151597
#	164990
#	176921
#	188573
#
# Disc length: 2671 seconds
#
# Revision: 0
# Processed by: cddbd v1.5.1PL0 Copyright (c) Steve Scherf et al.
# Submitted via: CDex 1.51
#
DISCID=d80a6d10
DTITLE=John Lee Hooker - Classic American Voices
DYEAR=2003
DGENRE=Blues
TTITLE0=Boom Boom
TTITLE1=I Wanna Walk
TTITLE2=Crawlin' Black Spider
TTITLE3=Run On
TTITLE4=Time Is Marching
TTITLE5=House Rent Boogie
TTITLE6=Mama, You've Got a Daugter
TTITLE7=I'm Mad Again
TTITLE8=Onions
TTITLE9=Maudie
TTITLE10=Process
TTITLE11=I'm So Excited
TTITLE12=Trouble Blues
TTITLE13=Whiskey And Wimmen
TTITLE14=Hard Headed Woman
TTITLE15=Everybody Rockin'
EXTD=YEAR: 2003
EXTT0=
EXTT1=
EXTT2=
EXTT3=
EXTT4=
EXTT5=
EXTT6=
EXTT7=
EXTT8=
EXTT9=
EXTT10=
EXTT11=
EXTT12=
EXTT13=
EXTT14=
EXTT15=
PLAYORDER=
